<svg class="svg-icon" style="width: 1em;height: 1em;vertical-align: middle;fill: currentColor;overflow: hidden;" viewBox="0 0 1024 1024" version="1.1" xmlns="http://www.w3.org/2000/svg"><path d="M554.048 128l0.032 65.6a317.952 317.952 0 0 1 99.456 26.56l32.8-56.704 55.424 32-32.8 56.768c28.032 20.224 52.64 44.832 72.864 72.864l56.768-32.8 32 55.424-56.736 32.8c13.952 30.848 23.136 64.32 26.624 99.488h65.568v64l-65.6 0.032a317.952 317.952 0 0 1-26.56 99.456l56.704 32.8-32 55.424-56.768-32.8c-20.224 28.032-44.832 52.64-72.864 72.864l32.8 56.768-55.424 32-32.8-56.736a317.952 317.952 0 0 1-99.456 26.624L554.048 896h-64v-65.6a317.952 317.952 0 0 1-99.52-26.56l-32.768 56.704-55.424-32 32.8-56.768a321.824 321.824 0 0 1-72.864-72.864l-56.768 32.8-32-55.424 56.736-32.8a317.952 317.952 0 0 1-26.624-99.456L138.048 544v-64h65.6a317.952 317.952 0 0 1 26.56-99.52l-56.704-32.768 32-55.424 56.768 32.8c20.224-28.032 44.832-52.64 72.864-72.864L302.336 195.456l55.424-32 32.8 56.736a317.952 317.952 0 0 1 99.488-26.624V128h64z m-32 125.152a258.848 258.848 0 1 0 0 517.696 258.848 258.848 0 0 0 0-517.696z m64 322.848a64 64 0 1 1 0 128 64 64 0 0 1 0-128z m-160 64a32 32 0 1 1 0 64 32 32 0 0 1 0-64z m0-256a96 96 0 1 1 0 192 96 96 0 0 1 0-192z m224 32a64 64 0 1 1 0 128 64 64 0 0 1 0-128z m-64-96a32 32 0 1 1 0 64 32 32 0 0 1 0-64z"  /></svg>