<svg class="svg-icon" style="width: 1em; height: 1em;vertical-align: middle;fill: currentColor;overflow: hidden;" viewBox="0 0 1024 1024" version="1.1" xmlns="http://www.w3.org/2000/svg"><path d="M672.7 925.4c-32.9 0-48.7-43.1-54-57.5-23.8-65-43.7-112.1-61-144-16.9-31.2-26.8-39.2-30.1-41.1-3 2.9-11.4 14.4-21.6 56.5-8.8 36.5-16.6 84.6-25.1 139.1l-1 6.3-4.4 4.6c-17.4 18-44.9 37.3-76.8 26.9-20.8-6.8-38.9-24.7-55.5-54.7-12.6-22.9-24.5-53.4-35.4-90.7-18.4-63.2-30.8-135.8-38.3-188.6-37.6-23-69.2-54.9-91.8-92.7-25.1-42-38.4-90.1-38.4-139.3 0-72.6 28.3-140.9 79.6-192.2 51.3-51.3 119.6-79.6 192.2-79.6 40 0 78.4 8.5 114.3 25.2 36-16.7 74.4-25.2 114.3-25.2 72.6 0 140.9 28.3 192.2 79.6 51.3 51.3 79.6 119.6 79.6 192.2 0 78.7-33.8 152.9-92.9 204.6-4.3 23-18.8 98.2-38.6 173.1-14 53-27.9 95.7-41.4 126.8-20.3 46.9-39.6 68.7-62.7 70.7-1-0.1-2.1 0-3.2 0zM527.1 642.2c26.4 0 46.3 28.6 60.9 53.9 19.3 33.6 41.6 85.2 68.3 158 8.2 22.4 14.6 29.1 16.9 30.9 3.2-1.9 14.5-11.3 31.4-52.3 12.3-29.8 25.2-70.3 38.3-120.3 22.5-86 37.7-171 37.9-171.9l1.3-7.2 5.6-4.7c53.4-44.2 84-109.3 84-178.6 0-61.9-24.1-120.1-67.9-163.9-43.8-43.8-102-67.9-163.9-67.9-37 0-72.4 8.5-105.2 25.3l-9.1 4.6-9.1-4.6c-32.9-16.8-68.3-25.3-105.2-25.3-61.9 0-120.1 24.1-163.9 67.9-43.8 43.8-67.9 102-67.9 163.9 0 41.9 11.3 83 32.7 118.8 20.8 34.8 50.5 63.6 85.8 83.5l8.7 4.9 1.4 9.8c7.2 52 19.6 127.7 38.5 192.6 10 34.5 20.8 62.2 32 82.5 14.1 25.5 25.7 33.7 32.9 36 8.7 2.9 19.2-1.3 31.2-12.4 9-57.4 17.3-107.8 27.1-145.3 9.7-36.9 23.6-75 54-78 0.9-0.1 2.1-0.2 3.3-0.2z"  /></svg>