<svg class="svg-icon" style="width: 1em; height: 1em;vertical-align: middle;fill: currentColor;overflow: hidden;" viewBox="0 0 1024 1024" version="1.1" xmlns="http://www.w3.org/2000/svg"><path d="M989.866667 1024H34.133333c-10.24 0-17.066667-6.826667-17.066666-17.066667 0-64.853333 47.786667-119.466667 102.4-119.466666h781.653333c58.026667 0 102.4 54.613333 102.4 119.466666 3.413333 10.24-3.413333 17.066667-13.653333 17.066667zM51.2 989.866667h918.186667c-6.826667-37.546667-34.133333-68.266667-68.266667-68.266667H119.466667c-30.72 0-61.44 30.72-68.266667 68.266667zM819.2 204.8H204.8c-10.24 0-17.066667-6.826667-17.066667-17.066667v-102.4C187.733333 37.546667 225.28 0 273.066667 0h477.866666c47.786667 0 85.333333 37.546667 85.333334 85.333333v102.4c0 10.24-6.826667 17.066667-17.066667 17.066667zM221.866667 170.666667h580.266666V85.333333c0-27.306667-23.893333-51.2-51.2-51.2H273.066667c-27.306667 0-51.2 23.893333-51.2 51.2V170.666667z" fill="" /><path d="M163.84 512c-58.026667 0-105.813333-47.786667-105.813333-105.813333 0-3.413333 0-6.826667 3.413333-10.24l129.706667-218.453334c6.826667-3.413333 10.24-6.826667 17.066666-6.826666h88.746667c3.413333 0 6.826667 3.413333 10.24 6.826666 3.413333 3.413333 3.413333 10.24 3.413333 13.653334L266.24 409.6c3.413333 58.026667-44.373333 102.4-102.4 102.4z m-68.266667-98.986667c3.413333 37.546667 34.133333 64.853333 68.266667 64.853334 40.96 0 71.68-30.72 71.68-68.266667L273.066667 204.8H218.453333l-122.88 208.213333zM512 512c-58.026667 0-102.4-44.373333-102.4-102.4V187.733333c0-6.826667 6.826667-17.066667 17.066667-17.066666h174.08c10.24 0 17.066667 6.826667 17.066666 17.066666V409.6c0 58.026667-47.786667 102.4-105.813333 102.4z m-68.266667-307.2v204.8c0 37.546667 30.72 71.68 71.68 71.68s71.68-30.72 71.68-71.68V204.8H443.733333z" fill="" /><path d="M337.92 512c-58.026667 0-105.813333-47.786667-105.813333-105.813333l44.373333-221.866667c3.413333-6.826667 10.24-13.653333 17.066667-13.653333h129.706666c10.24 0 20.48 10.24 20.48 17.066666V409.6c0 58.026667-47.786667 102.4-105.813333 102.4z m-27.306667-307.2l-40.96 204.8c0 34.133333 30.72 68.266667 71.68 68.266667s68.266667-30.72 68.266667-68.266667V204.8H310.613333zM860.16 512c-58.026667 0-105.813333-47.786667-105.813333-105.813333l-44.373334-215.04c0-3.413333 0-10.24 3.413334-13.653334 6.826667-3.413333 10.24-6.826667 17.066666-6.826666H819.2c6.826667 0 10.24 3.413333 13.653333 6.826666l129.706667 218.453334c0 3.413333 3.413333 6.826667 3.413333 10.24 0 61.44-47.786667 105.813333-105.813333 105.813333zM750.933333 204.8l40.96 197.973333c0 40.96 30.72 75.093333 71.68 75.093334 37.546667 0 68.266667-30.72 68.266667-64.853334L808.96 204.8H750.933333z" fill="" /><path d="M686.08 512c-58.026667 0-105.813333-47.786667-105.813333-105.813333V187.733333c0-10.24 6.826667-17.066667 17.066666-17.066666h129.706667c6.826667 0 13.653333 6.826667 17.066667 13.653333l44.373333 218.453333c3.413333 64.853333-44.373333 109.226667-102.4 109.226667z m-68.266667-307.2v204.8c0 37.546667 30.72 71.68 71.68 71.68 37.546667 0 71.68-30.72 71.68-71.68L716.8 204.8h-98.986667zM273.066667 853.333333c-6.826667 0-13.653333-3.413333-17.066667-13.653333L204.8 658.773333l-51.2 180.906667c-3.413333 10.24-10.24 13.653333-17.066667 13.653333s-13.653333-6.826667-17.066666-13.653333l-34.133334-273.066667c0-10.24 6.826667-17.066667 13.653334-20.48 10.24 0 17.066667 6.826667 20.48 13.653334l23.893333 191.146666 44.373333-157.013333c3.413333-13.653333 27.306667-13.653333 34.133334 0L266.24 750.933333l23.893333-191.146666c0-10.24 10.24-17.066667 20.48-13.653334 10.24 0 17.066667 10.24 13.653334 20.48l-34.133334 273.066667c0 6.826667-6.826667 13.653333-17.066666 13.653333zM580.266667 853.333333c-6.826667 0-13.653333-3.413333-17.066667-13.653333L512 658.773333l-51.2 180.906667c-3.413333 10.24-10.24 13.653333-17.066667 13.653333s-13.653333-6.826667-17.066666-13.653333l-34.133334-273.066667c0-10.24 6.826667-17.066667 13.653334-20.48 10.24 0 17.066667 6.826667 20.48 13.653334l23.893333 191.146666 44.373333-157.013333c3.413333-13.653333 27.306667-13.653333 34.133334 0l44.373333 157.013333 23.893333-191.146666c0-10.24 10.24-17.066667 20.48-13.653334 10.24 0 17.066667 10.24 13.653334 20.48l-34.133334 273.066667c0 6.826667-6.826667 13.653333-17.066666 13.653333zM887.466667 853.333333c-6.826667 0-13.653333-3.413333-17.066667-13.653333L819.2 658.773333l-51.2 180.906667c-3.413333 10.24-10.24 13.653333-17.066667 13.653333s-13.653333-6.826667-17.066666-13.653333l-34.133334-273.066667c0-10.24 6.826667-17.066667 13.653334-20.48 10.24 0 17.066667 6.826667 20.48 13.653334l23.893333 191.146666 44.373333-157.013333c3.413333-13.653333 27.306667-13.653333 34.133334 0l44.373333 157.013333 23.893333-191.146666c0-10.24 10.24-17.066667 20.48-13.653334 10.24 0 17.066667 10.24 13.653334 20.48l-34.133334 273.066667c0 6.826667-6.826667 13.653333-17.066666 13.653333z" fill="" /></svg>