<svg class="svg-icon" style="width: 1em; height: 1em;vertical-align: middle;fill: currentColor;overflow: hidden;" viewBox="0 0 1024 1024" version="1.1" xmlns="http://www.w3.org/2000/svg"><path d="M34.56 756.86912q-6.84032 0-11.9808-4.56704t-5.70368-11.4176q-0.57344-6.85056 3.9936-13.12768t11.40736-7.41376l142.70464-15.98464q6.85056-1.14688 12.55424 3.9936 5.71392 5.14048 6.85056 12.55424 1.14688 7.424-3.9936 13.12768t-11.99104 5.70368L34.56 756.85888z m78.77632 61.6448q-6.85056 0-11.4176-4.56704t-5.71392-11.4176q-1.13664-6.85056 3.4304-12.55424 4.56704-5.70368 12.55424-6.85056l70.77888-7.9872q6.85056-1.14688 12.55424 3.42016 5.71392 4.56704 6.85056 12.56448 1.14688 7.9872-3.9936 13.12768-5.14048 5.13024-11.99104 6.27712l-73.0624 7.9872z m44.52352 67.35872q-6.85056 0-11.99104-4.56704-5.14048-4.56704-6.27712-11.99104-1.14688-7.424 4.00384-13.12768 5.14048-5.70368 11.99104-5.70368l35.38944-4.56704q7.9872-1.14688 13.70112 3.42016 5.70368 4.56704 6.27712 11.9808 0.57344 7.424-4.00384 13.12768-4.56704 5.71392-11.40736 6.8608l-37.67296 4.56704z m687.22688-409.83552q-6.85056 2.28352-17.12128 3.4304 33.10592-3.4304-18.26816 1.13664l29.68576 263.71072-402.98496 44.52352-44.51328-402.98496 180.36736-20.55168q-11.4176-17.12128-19.4048-33.10592l-182.66112 20.55168q-5.70368 0-10.83392 5.14048t-4.00384 14.26432l47.94368 437.22752q1.14688 6.85056 6.28736 11.4176 5.13024 4.56704 11.9808 4.56704l439.51104-47.94368q9.13408-2.28352 11.4176-5.71392 5.70368-5.70368 3.42016-13.69088l-30.8224-281.97888zM549.41696 625.59232q-6.85056 0-11.9808-5.14048-5.13024-5.14048-6.27712-11.99104-1.14688-6.85056 3.9936-12.55424 5.13024-5.70368 11.9808-6.85056l141.55776-15.98464q7.9872 0 13.70112 4.56704 5.71392 4.56704 6.27712 11.99104 0.57344 7.424-3.9936 13.12768-4.56704 5.71392-11.4176 6.8608l-143.84128 15.98464z m20.55168 69.632q-6.85056 0-11.99104-5.13024-5.13024-5.13024-6.27712-11.9808-1.14688-6.85056 3.9936-12.56448 5.14048-5.70368 11.99104-6.84032L684.12416 646.144q6.85056 0 12.55424 4.56704 5.70368 4.56704 6.85056 11.4176t-3.9936 13.12768q-5.14048 6.27712-11.9808 7.424l-117.58592 12.55424zM792.576 428.09344q-58.22464 0-107.3152-28.53888-49.08032-28.53888-77.6192-77.62944-28.53888-49.09056-28.53888-107.3152 0-58.2144 28.53888-107.30496 28.53888-49.08032 77.6192-78.19264Q734.35136 0 792.576 0t107.3152 29.11232q49.08032 29.11232 78.20288 78.19264 29.11232 49.09056 29.11232 107.30496 0 58.22464-29.11232 107.3152t-78.20288 77.62944q-49.09056 28.53888-107.3152 28.53888z m0-392.704q-47.94368 0-89.04704 24.54528-41.09312 24.54528-65.06496 65.6384-23.97184 41.09312-23.97184 89.04704 0 47.95392 23.97184 89.04704 23.97184 41.09312 65.06496 65.0752 41.09312 23.97184 89.04704 23.97184 47.94368 0 89.04704-23.97184 41.09312-23.97184 65.06496-65.0752 23.97184-41.09312 23.97184-89.04704 0-47.95392-23.97184-89.04704-23.97184-41.09312-65.06496-65.6384Q840.52992 35.38944 792.576 35.38944z m71.91552 214.62016H792.576q-7.9872 0-13.12768-5.14048-5.14048-5.14048-5.14048-13.12768V124.43648q0-6.85056 5.14048-11.99104 5.14048-5.14048 13.12768-5.14048 7.9872 0 13.12768 5.14048 5.14048 5.14048 5.14048 11.99104v90.18368h53.64736q6.85056 0 11.99104 5.14048 5.14048 5.13024 5.14048 12.55424t-5.14048 12.55424q-5.14048 5.14048-11.99104 5.14048z m97.03424 618.73152q-1.13664-7.9872-6.84032-12.55424-5.71392-4.56704-13.70112-3.42016l-497.73568 54.79424q-9.13408-29.68576-35.96288-46.80704-26.81856-17.12128-58.79808-14.83776l-20.54144 4.56704-75.34592-675.81952q0-4.56704-2.85696-7.99744-2.85696-3.42016-6.27712-5.70368L123.5968 101.60128q-6.85056-3.42016-13.70112-1.14688-6.85056 2.28352-10.27072 9.13408-3.42016 6.85056-1.13664 13.70112 2.27328 6.85056 9.12384 10.27072l110.73536 54.80448 75.34592 683.80672q-13.70112 13.70112-19.97824 32.53248-6.27712 18.83136-5.14048 39.38304 4.56704 34.2528 30.2592 57.07776 25.68192 22.8352 58.78784 22.8352 5.70368 0 9.13408-1.13664 36.52608-3.4304 60.50816-33.10592 15.9744-21.69856 19.4048-46.80704l498.87232-55.94112q6.85056 0 11.4176-5.13024 4.5568-5.13024 4.5568-13.13792zM399.872 969.20576q-12.55424 15.98464-34.816 18.83136-22.26176 2.84672-39.95648-10.8544-17.69472-13.70112-19.97824-35.96288-2.28352-22.25152 11.40736-39.38304 13.70112-17.13152 36.53632-19.41504h5.71392q20.54144 0 35.95264 13.70112t17.12128 34.2528q1.72032 20.54144-11.9808 38.8096z m44.52352-34.2528z"  /></svg>