<svg class="svg-icon" style="width: 1em; height: 1em;vertical-align: middle;fill: currentColor;overflow: hidden;" viewBox="0 0 1024 1024" version="1.1" xmlns="http://www.w3.org/2000/svg"><path d="M908.4 551c3.6-30.8-68.7-140.1-104-234-35.3-93.9-100.3-221-325-221-224.7 0-364 194.9-364 325 0 175.8 117.5 285.3 117 325 0 0.6 0 169 0 169s4.9 13 17.1 13c16.6 0 21.9-13 21.9-13L271.4 746c0-50.5-116.3-183.1-117-325-0.8-153 165.4-278.6 312-285.7l0 247.4c-61.3 7.3-104 65.6-104 129.2 0 68 51.8 118.2 120.1 118.2 27.6 0 53-9.2 73.6-24.4l63.5 45.1c-0.3 1.8-0.5 3.5-0.5 5.3 0 21.5 17.5 38.9 39 38.9 21.6 0 39-17.4 39-38.9 0-21.5-17.5-38.9-39-38.9-5.2 0-10 1.1-14.5 2.8l-59.8-42.5c14.1-20 22.4-44.3 22.4-70.6 0-59.2-44.2-109.9-100.6-122.2L505.6 136.1C697.5 147 749 276.8 765.5 330c17.4 56.3 104.3 192.4 104 208-0.3 15.8-91 52-91 52l0 104c0 0-0.1 25.5-26 52-24.2 24.8-78 26-78 26l-52 0 0 143c0 0 5 13 17.9 13 18.8 0 21.1-13 21.1-13L661.5 811c0 0 54 5.7 104-26 53.2-33.8 52-91 52-91l0-78C843.2 607.7 904.9 581.8 908.4 551zM567 507c0 46.5-37.9 84.3-84.5 84.3-46.7 0-84.5-37.7-84.5-84.3s37.8-84.3 84.5-84.3C529.2 422.8 567 460.5 567 507z"  /></svg>