<svg class="svg-icon" style="width: 1em;height: 1em;vertical-align: middle;fill: currentColor;overflow: hidden;" viewBox="0 0 1024 1024" version="1.1" xmlns="http://www.w3.org/2000/svg"><path d="M664.77056 964.48c-1.152 0-3.25632-0.34304-4.40832-2.6624l-0.30208-0.55296-119.76192-206.70464H483.69664l-119.91552 206.98112-0.14336 0.2816c-0.91648 1.83808-3.21024 2.6624-5.07904 2.6624-1.46944 0-2.72384-0.47616-3.36896-1.27488-21.4272-26.37312-62.01344-73.34912-104.4992-118.98368l-2.15552-2.31424-3.09248-0.69632c-47.41632-10.67008-93.92128-19.57888-127.87712-26.0864-11.98592-2.29888-22.41024-4.29568-30.76096-5.9648l-0.55808-0.09728c-0.56832-0.08704-2.304-0.32768-3.456-2.52416a7.64416 7.64416 0 0 1-0.128-6.55872l130.59584-228.55168-2.57536-4.95616c-19.712-37.90336-30.85312-78.98624-34.06848-125.57824l-0.04608-0.65536-0.128-0.64512c-1.39776-7.00928-1.39776-12.6208-1.39776-20.39296 0-75.91936 25.76896-147.82976 74.51648-207.9488C315.14624 124.35456 413.17376 72.64256 512 72.64256c86.1952 0 172.36992 37.06368 236.43648 101.6832 63.60576 64.1536 99.6608 149.87776 98.92352 235.19232v9.68704c0 44.48768-11.74528 92.31872-35.90656 146.21184l-2.16576 4.82816 39.49056 66.95936c5.32992 9.6 1.77152 22.92736-8.05888 29.48096a23.10144 23.10144 0 0 1-11.58144 3.20512c-7.66976 0-14.50496-4.06528-18.75968-11.15648l-26.6752-46.68416-9.39008 12.06784c-45.19424 58.112-108.02176 100.00896-176.90112 117.97504l-13.12256 3.42528 87.49056 148.35712 9.344-10.12736c0.37376-0.4096 37.39136-40.54528 73.216-82.46272a3105.536 3105.536 0 0 1 111.39072-21.58592l13.59872-2.33472-6.1696-12.3392c-4.1472-8.28416-2.19648-16.39936 5.05344-21.40672 3.70688-1.43872 6.56896-3.4048 8.71936-4.88448 0.86016-0.5888 1.6384-1.17248 2.44736-1.57184l0.50176-0.27136c1.9968-1.14176 4.25472-1.7408 6.54336-1.7408 5.51936 0 10.06592 3.44576 12.4672 9.45664l0.29184 0.72192 32.17408 54.70208c0.92672 2.03776 0.8704 4.56704-0.14336 6.51264-1.152 2.19648-2.88768 2.44224-3.46112 2.52416l-0.55808 0.09728c-8.17152 1.63328-18.22208 3.57888-29.75232 5.81632-33.7152 6.53312-79.89248 15.47776-128.83456 26.22464l-3.33312 0.73216-2.2272 2.5856c-40.81152 47.33952-81.62304 94.4128-103.7312 118.09792-1.1264 1.11104-2.82624 1.85856-4.54656 1.85856z m-396.72832-161.60256c34.39104 40.47872 72.85248 82.05824 73.24672 82.47808l9.25184 9.99424 89.15456-147.95264-12.90752-3.65056c-70.82496-20.01408-132.6592-60.88192-178.81088-118.1696l-9.30816-11.55072-96.5888 164.7616 14.592 2.50368c0.54784 0.09216 54.31808 9.344 111.37024 21.58592zM508.8 116.16256c-154.41408 0-295.04 145.96608-295.04 306.24256 0 156.46208 135.11168 288.64 295.04 288.64 162.68288 0 295.04-134.50752 295.04-299.84256 0-157.17376-137.87136-295.04-295.04-295.04z"  /><path d="M412.8 594.88256c-6.16448 0-13.0816-2.33472-21.13536-7.13728-11.47904-8.70912-16.52224-21.36064-13.84448-34.7392l16.49664-92.37504-67.54304-65.8944c-9.43104-9.43104-12.63616-23.36256-8.32-36.31616 4.20864-12.62592 15.60064-22.38976 27.70944-23.7312l94.03904-13.19424 41.19552-84.03968c5.38624-12.11392 17.69984-19.5328 32.2048-19.5328 13.96736 0 25.1392 6.8352 32.32256 19.76832l41.07264 83.80416 93.89056 13.17888c12.98944 1.30048 23.32672 10.17344 27.8528 23.75168 4.31616 12.94848 1.11104 26.88-8.36608 36.36224l-67.49184 65.8432 16.47616 92.26752c2.70848 13.56288-2.41152 26.28608-14.0288 35.00544-5.87264 4.39808-12.66176 6.63552-20.17792 6.63552-5.85728 0-11.86816-1.35168-17.8688-4.0192l-85.30432-44.29824-84.20352 44.57472-0.21504 0.14336c-3.75808 2.50368-9.13408 3.9424-14.76096 3.9424z m195.65056-39.96672l-18.93376-106.74688 77.47072-75.7504-106.7776-15.49824L512 258.78528l-48.2048 98.13504-106.7776 15.49824 77.4656 75.7504-18.93888 106.74688L512 504.96512l96.45056 49.95072z"  /></svg>