<svg class="svg-icon" style="width: 1em; height: 1em;vertical-align: middle;fill: currentColor;overflow: hidden;" viewBox="0 0 1024 1024" version="1.1" xmlns="http://www.w3.org/2000/svg"><path d="M881.63 121.14c-224.122-116.875-369.876 68.741-369.876 68.741s-145.881-185.617-369.876-68.865c-134.399 70.1-149.088 208.204-87.257 335.074 116.875 239.921 460.959 486.877 460.959 486.877s342.479-248.315 456.271-488.729c59.734-126.133 43.44-263.369-90.217-333.102l0 0zM514.593 870.893c0 0-139.829-102.189-260.779-234.739l77.258 0 93.677-200.801 141.067 309.158 54.179-199.684 54.179 91.454 98.239 0c-119.344 132.303-257.814 234.613-257.814 234.613l0 0zM911.126 438.446c-22.462 48.383-55.286 97.126-92.563 143.536l-108.237 0-90.217-146.743-72.322 182.901-123.045-324.956-129.71 288.917-87.871 0c-37.275-45.91-70.225-94.043-93.058-141.805-53.81-112.309-40.975-216.348 75.781-278.425 194.629-103.299 321.377 99.103 321.377 99.103s126.748-202.405 321.377-99.103c116.258 61.582 130.448 164.883 78.492 276.576l0 0zM911.126 438.446z"  /></svg>